<mxfile host="Electron" agent="Mozilla/5.0 (Windows NT 10.0; Win64; x64) AppleWebKit/537.36 (KHTML, like Gecko) draw.io/26.0.16 Chrome/132.0.6834.196 Electron/34.2.0 Safari/537.36" version="26.0.16">
  <diagram name="Page-1" id="ZFPFeuCsEyuPPc1-gpU_">
    <mxGraphModel dx="1615" dy="955" grid="0" gridSize="10" guides="1" tooltips="1" connect="1" arrows="1" fold="1" page="1" pageScale="1" pageWidth="1400" pageHeight="850" background="light-dark(#0d0c0c, #121212)" math="0" shadow="0">
      <root>
        <mxCell id="0" />
        <mxCell id="1" parent="0" />
        <mxCell id="s3mLMZnLfmYUcZO2vfWd-1" value="&lt;font style=&quot;font-size: 18px;&quot;&gt;&lt;b&gt;Input Layer&lt;/b&gt;&lt;/font&gt;&lt;div&gt;&lt;div&gt;(60 timesteps, 1 feature)&lt;/div&gt;&lt;/div&gt;" style="rounded=1;whiteSpace=wrap;html=1;fillColor=#dae8fc;strokeColor=#6c8ebf;" vertex="1" parent="1">
          <mxGeometry x="433" y="110" width="254" height="72" as="geometry" />
        </mxCell>
        <mxCell id="s3mLMZnLfmYUcZO2vfWd-2" value="&lt;span style=&quot;font-size: 18px;&quot;&gt;&lt;b&gt;LSTM Layer 1&lt;/b&gt;&lt;/span&gt;&lt;div&gt;&lt;b style=&quot;&quot;&gt;&lt;font style=&quot;font-size: 15px;&quot;&gt;64 units&lt;/font&gt;&lt;/b&gt;&lt;/div&gt;&lt;div&gt;&lt;font style=&quot;font-size: 14px;&quot;&gt;Output shape (none, 60, 64)&lt;/font&gt;&lt;br&gt;&lt;div&gt;Parameter 16,966&lt;/div&gt;&lt;/div&gt;" style="rounded=1;whiteSpace=wrap;html=1;fillColor=#d5e8d4;strokeColor=#82b366;" vertex="1" parent="1">
          <mxGeometry x="433" y="257" width="255" height="86" as="geometry" />
        </mxCell>
        <mxCell id="s3mLMZnLfmYUcZO2vfWd-3" value="&lt;span style=&quot;font-size: 18px;&quot;&gt;&lt;b&gt;LSTM Layer 2&lt;/b&gt;&lt;/span&gt;&lt;div&gt;&lt;b style=&quot;&quot;&gt;&lt;font style=&quot;font-size: 15px;&quot;&gt;64 units&lt;/font&gt;&lt;/b&gt;&lt;/div&gt;&lt;div&gt;&lt;font style=&quot;font-size: 14px;&quot;&gt;Activation (none, 64)&lt;/font&gt;&lt;br&gt;&lt;div&gt;Parameter 33,024&lt;/div&gt;&lt;/div&gt;" style="rounded=1;whiteSpace=wrap;html=1;fillColor=#d5e8d4;strokeColor=#82b366;" vertex="1" parent="1">
          <mxGeometry x="433" y="416" width="255" height="86" as="geometry" />
        </mxCell>
        <mxCell id="s3mLMZnLfmYUcZO2vfWd-4" value="&lt;span style=&quot;font-size: 18px;&quot;&gt;&lt;b&gt;Dense Layer&lt;/b&gt;&lt;/span&gt;&lt;br&gt;&lt;div&gt;&lt;b style=&quot;&quot;&gt;&lt;font style=&quot;font-size: 15px;&quot;&gt;128 units&lt;/font&gt;&lt;/b&gt;&lt;/div&gt;&lt;div&gt;&lt;span style=&quot;font-size: 14px;&quot;&gt;ReLU activation&lt;/span&gt;&lt;br&gt;&lt;div&gt;Parameter 8,320&lt;/div&gt;&lt;/div&gt;" style="rounded=1;whiteSpace=wrap;html=1;fillColor=#fff2cc;strokeColor=#d6b656;" vertex="1" parent="1">
          <mxGeometry x="432" y="573" width="255" height="86" as="geometry" />
        </mxCell>
        <mxCell id="s3mLMZnLfmYUcZO2vfWd-5" value="&lt;span style=&quot;font-size: 18px;&quot;&gt;&lt;b&gt;Output Layer&lt;/b&gt;&lt;/span&gt;&lt;br&gt;&lt;div&gt;&lt;b style=&quot;&quot;&gt;&lt;font style=&quot;font-size: 15px;&quot;&gt;1 units&lt;/font&gt;&lt;/b&gt;&lt;/div&gt;&lt;div&gt;&lt;div&gt;Parameter 129&lt;/div&gt;&lt;/div&gt;" style="rounded=1;whiteSpace=wrap;html=1;fillColor=#f8cecc;strokeColor=#b85450;" vertex="1" parent="1">
          <mxGeometry x="433" y="730" width="255" height="73" as="geometry" />
        </mxCell>
        <mxCell id="s3mLMZnLfmYUcZO2vfWd-7" value="" style="shape=flexArrow;endArrow=classic;html=1;rounded=0;strokeColor=#FFFFFF;" edge="1" parent="1">
          <mxGeometry width="50" height="50" relative="1" as="geometry">
            <mxPoint x="563" y="196" as="sourcePoint" />
            <mxPoint x="563" y="244" as="targetPoint" />
            <Array as="points">
              <mxPoint x="563" y="201" />
            </Array>
          </mxGeometry>
        </mxCell>
        <mxCell id="s3mLMZnLfmYUcZO2vfWd-8" value="" style="shape=flexArrow;endArrow=classic;html=1;rounded=0;strokeColor=#FFFFFF;" edge="1" parent="1">
          <mxGeometry width="50" height="50" relative="1" as="geometry">
            <mxPoint x="564" y="356" as="sourcePoint" />
            <mxPoint x="564" y="404" as="targetPoint" />
            <Array as="points">
              <mxPoint x="564" y="361" />
            </Array>
          </mxGeometry>
        </mxCell>
        <mxCell id="s3mLMZnLfmYUcZO2vfWd-9" value="" style="shape=flexArrow;endArrow=classic;html=1;rounded=0;strokeColor=#FFFFFF;" edge="1" parent="1">
          <mxGeometry width="50" height="50" relative="1" as="geometry">
            <mxPoint x="563" y="516" as="sourcePoint" />
            <mxPoint x="563" y="564" as="targetPoint" />
            <Array as="points">
              <mxPoint x="563" y="521" />
            </Array>
          </mxGeometry>
        </mxCell>
        <mxCell id="s3mLMZnLfmYUcZO2vfWd-10" value="" style="shape=flexArrow;endArrow=classic;html=1;rounded=0;strokeColor=#FFFFFF;" edge="1" parent="1">
          <mxGeometry width="50" height="50" relative="1" as="geometry">
            <mxPoint x="564" y="673" as="sourcePoint" />
            <mxPoint x="564" y="721" as="targetPoint" />
            <Array as="points">
              <mxPoint x="564" y="678" />
            </Array>
          </mxGeometry>
        </mxCell>
        <mxCell id="s3mLMZnLfmYUcZO2vfWd-11" value="&lt;span style=&quot;color: rgb(197, 200, 198); font-family: berkeleyMono, &amp;quot;berkeleyMono Fallback&amp;quot;, ui-monospace, SFMono-Regular, monospace; text-align: right; white-space-collapse: preserve;&quot;&gt;&lt;font style=&quot;font-size: 15px;&quot;&gt; 60 days of close prices &lt;/font&gt;&lt;/span&gt;" style="rounded=0;whiteSpace=wrap;html=1;dashed=1;fillColor=none;strokeColor=#FFFFFF;" vertex="1" parent="1">
          <mxGeometry x="129" y="110" width="264" height="72" as="geometry" />
        </mxCell>
        <mxCell id="s3mLMZnLfmYUcZO2vfWd-12" value="&lt;span style=&quot;color: rgb(197, 200, 198); font-family: berkeleyMono, &amp;quot;berkeleyMono Fallback&amp;quot;, ui-monospace, SFMono-Regular, monospace; text-align: right; white-space-collapse: preserve;&quot;&gt;&lt;font style=&quot;font-size: 15px;&quot;&gt; Predicted Stock Price&lt;/font&gt;&lt;/span&gt;" style="rounded=0;whiteSpace=wrap;html=1;dashed=1;fillColor=none;strokeColor=#FFFFFF;" vertex="1" parent="1">
          <mxGeometry x="129" y="730" width="264" height="71" as="geometry" />
        </mxCell>
        <mxCell id="s3mLMZnLfmYUcZO2vfWd-13" value="&lt;font style=&quot;font-size: 32px;&quot;&gt;&lt;b&gt;&lt;span style=&quot;box-sizing: border-box; border: 0px solid rgb(229, 231, 235); scrollbar-color: auto; scrollbar-width: auto; --tw-border-spacing-x: 0; --tw-border-spacing-y: 0; --tw-translate-x: 0; --tw-translate-y: 0; --tw-rotate: 0; --tw-skew-x: 0; --tw-skew-y: 0; --tw-scale-x: 1; --tw-scale-y: 1; --tw-pan-x: ; --tw-pan-y: ; --tw-pinch-zoom: ; --tw-scroll-snap-strictness: proximity; --tw-gradient-from-position: ; --tw-gradient-via-position: ; --tw-gradient-to-position: ; --tw-ordinal: ; --tw-slashed-zero: ; --tw-numeric-figure: ; --tw-numeric-spacing: ; --tw-numeric-fraction: ; --tw-ring-inset: ; --tw-ring-offset-width: 0px; --tw-ring-offset-color: #fff; --tw-ring-color: rgb(59 130 246/0.5); --tw-ring-offset-shadow: 0 0 #0000; --tw-ring-shadow: 0 0 #0000; --tw-shadow: 0 0 #0000; --tw-shadow-colored: 0 0 #0000; --tw-blur: ; --tw-brightness: ; --tw-contrast: ; --tw-grayscale: ; --tw-hue-rotate: ; --tw-invert: ; --tw-saturate: ; --tw-sepia: ; --tw-drop-shadow: ; --tw-backdrop-blur: ; --tw-backdrop-brightness: ; --tw-backdrop-contrast: ; --tw-backdrop-grayscale: ; --tw-backdrop-hue-rotate: ; --tw-backdrop-invert: ; --tw-backdrop-opacity: ; --tw-backdrop-saturate: ; --tw-backdrop-sepia: ; --tw-contain-size: ; --tw-contain-layout: ; --tw-contain-paint: ; --tw-contain-style: ; user-select: none; color: rgb(197, 200, 198); font-family: berkeleyMono, &amp;quot;berkeleyMono Fallback&amp;quot;, ui-monospace, SFMono-Regular, monospace; white-space-collapse: preserve; background-color: transparent; opacity: 1; line-height: 1.42857; flex-shrink: 0; padding: 8px; text-align: right;&quot;&gt;LSTM STOCK PREDICTION &lt;/span&gt;&lt;span style=&quot;color: rgb(197, 200, 198); font-family: berkeleyMono, &amp;quot;berkeleyMono Fallback&amp;quot;, ui-monospace, SFMono-Regular, monospace; text-align: right; white-space-collapse: preserve;&quot;&gt;MODEL &lt;/span&gt;&lt;span style=&quot;color: rgb(197, 200, 198); font-family: berkeleyMono, &amp;quot;berkeleyMono Fallback&amp;quot;, ui-monospace, SFMono-Regular, monospace; text-align: right; white-space-collapse: preserve;&quot;&gt;ARCHITECTURE&lt;/span&gt;&lt;/b&gt;&lt;/font&gt;" style="text;html=1;align=center;verticalAlign=middle;whiteSpace=wrap;rounded=0;" vertex="1" parent="1">
          <mxGeometry x="19" y="24" width="841" height="69" as="geometry" />
        </mxCell>
        <mxCell id="s3mLMZnLfmYUcZO2vfWd-14" value="&lt;span style=&quot;font-family: berkeleyMono, &amp;quot;berkeleyMono Fallback&amp;quot;, ui-monospace, SFMono-Regular, monospace; text-align: right; white-space-collapse: preserve;&quot;&gt;&lt;font style=&quot;color: rgb(0, 0, 0); font-size: 21px;&quot;&gt;&lt;b style=&quot;&quot;&gt;MODEL SUMMARY&lt;/b&gt;&lt;/font&gt;&lt;/span&gt;" style="swimlane;fontStyle=0;childLayout=stackLayout;horizontal=1;startSize=30;horizontalStack=0;resizeParent=1;resizeParentMax=0;resizeLast=0;collapsible=1;marginBottom=0;whiteSpace=wrap;html=1;dashed=1;strokeColor=#FFFFFF;" vertex="1" parent="1">
          <mxGeometry x="784" y="285" width="441" height="266" as="geometry" />
        </mxCell>
        <mxCell id="s3mLMZnLfmYUcZO2vfWd-15" value="&lt;span style=&quot;font-family: berkeleyMono, &amp;quot;berkeleyMono Fallback&amp;quot;, ui-monospace, SFMono-Regular, monospace; text-align: right; white-space-collapse: preserve;&quot;&gt;&lt;font style=&quot;color: rgb(255, 255, 255); font-size: 20px;&quot;&gt;Total Parameters:            58,369&lt;/font&gt;&lt;/span&gt;" style="text;strokeColor=none;fillColor=none;align=left;verticalAlign=middle;spacingLeft=4;spacingRight=4;overflow=hidden;points=[[0,0.5],[1,0.5]];portConstraint=eastwest;rotatable=0;whiteSpace=wrap;html=1;" vertex="1" parent="s3mLMZnLfmYUcZO2vfWd-14">
          <mxGeometry y="30" width="441" height="50" as="geometry" />
        </mxCell>
        <mxCell id="s3mLMZnLfmYUcZO2vfWd-16" value="&lt;span style=&quot;font-family: berkeleyMono, &amp;quot;berkeleyMono Fallback&amp;quot;, ui-monospace, SFMono-Regular, monospace; text-align: right; white-space-collapse: preserve;&quot;&gt;&lt;font style=&quot;color: rgb(255, 255, 255); font-size: 20px;&quot;&gt;Optimizer:                     Adam&lt;/font&gt;&lt;/span&gt;" style="text;strokeColor=none;fillColor=none;align=left;verticalAlign=middle;spacingLeft=4;spacingRight=4;overflow=hidden;points=[[0,0.5],[1,0.5]];portConstraint=eastwest;rotatable=0;whiteSpace=wrap;html=1;" vertex="1" parent="s3mLMZnLfmYUcZO2vfWd-14">
          <mxGeometry y="80" width="441" height="47" as="geometry" />
        </mxCell>
        <mxCell id="s3mLMZnLfmYUcZO2vfWd-17" value="&lt;span style=&quot;font-family: berkeleyMono, &amp;quot;berkeleyMono Fallback&amp;quot;, ui-monospace, SFMono-Regular, monospace; text-align: right; white-space-collapse: preserve;&quot;&gt;&lt;font style=&quot;color: rgb(255, 255, 255); font-size: 20px;&quot;&gt;Loss Function:                  MAE &lt;/font&gt;&lt;/span&gt;" style="text;strokeColor=none;fillColor=none;align=left;verticalAlign=middle;spacingLeft=4;spacingRight=4;overflow=hidden;points=[[0,0.5],[1,0.5]];portConstraint=eastwest;rotatable=0;whiteSpace=wrap;html=1;" vertex="1" parent="s3mLMZnLfmYUcZO2vfWd-14">
          <mxGeometry y="127" width="441" height="46" as="geometry" />
        </mxCell>
        <mxCell id="s3mLMZnLfmYUcZO2vfWd-18" value="&lt;span style=&quot;font-family: berkeleyMono, &amp;quot;berkeleyMono Fallback&amp;quot;, ui-monospace, SFMono-Regular, monospace; text-align: right; white-space-collapse: preserve;&quot;&gt;&lt;font style=&quot;color: rgb(255, 255, 255); font-size: 20px;&quot;&gt;Metric:                        RMSE &lt;/font&gt;&lt;/span&gt;" style="text;strokeColor=none;fillColor=none;align=left;verticalAlign=middle;spacingLeft=4;spacingRight=4;overflow=hidden;points=[[0,0.5],[1,0.5]];portConstraint=eastwest;rotatable=0;whiteSpace=wrap;html=1;" vertex="1" parent="s3mLMZnLfmYUcZO2vfWd-14">
          <mxGeometry y="173" width="441" height="46" as="geometry" />
        </mxCell>
        <mxCell id="s3mLMZnLfmYUcZO2vfWd-19" value="&lt;span style=&quot;font-family: berkeleyMono, &amp;quot;berkeleyMono Fallback&amp;quot;, ui-monospace, SFMono-Regular, monospace; text-align: right; white-space-collapse: preserve;&quot;&gt;&lt;font style=&quot;color: rgb(255, 255, 255); font-size: 20px;&quot;&gt;Training Split:                 95%&lt;/font&gt;&lt;/span&gt;" style="text;strokeColor=none;fillColor=none;align=left;verticalAlign=middle;spacingLeft=4;spacingRight=4;overflow=hidden;points=[[0,0.5],[1,0.5]];portConstraint=eastwest;rotatable=0;whiteSpace=wrap;html=1;" vertex="1" parent="s3mLMZnLfmYUcZO2vfWd-14">
          <mxGeometry y="219" width="441" height="47" as="geometry" />
        </mxCell>
      </root>
    </mxGraphModel>
  </diagram>
</mxfile>
